# xmcd
#
# Track frame offsets: 
#        150
#        18526
#        39310
#        54254
#        71328
#        89456
#        109967
#        129379
#        142909
#        158214
#        177041
#        200482
#        213792
#        239758
#
# Disc length: 3473 seconds
#
# Revision: 0
# Processed by: cddbd v1.5.2PL0 Copyright (c) Steve Scherf et al.
# Submitted via: ExactAudioCopy v1.0b1
#
DISCID=bc0d8f0e
DTITLE=Glass Pyramid - Unreleased Archives 1979-1989
DYEAR=2009
DGENRE=Funk
TTITLE0=Country Cowboy
TTITLE1=Who's Girl Are You?
TTITLE2=Who's Girl Are You? (Bonus)
TTITLE3=Better By The Minute
TTITLE4=Really Want To Be The One
TTITLE5=Move Your Body
TTITLE6=Time To Party
TTITLE7=Stop It
TTITLE8=Back To Lovers
TTITLE9=Ready For Love
TTITLE10=Love Song
TTITLE11=Country Cowboy (Bonus)
TTITLE12=Country Cowboy (Instrumental)
TTITLE13=Get On Up
EXTD=
EXTT0=
EXTT1=
EXTT2=
EXTT3=
EXTT4=
EXTT5=
EXTT6=
EXTT7=
EXTT8=
EXTT9=
EXTT10=
EXTT11=
EXTT12=
EXTT13=
PLAYORDER=
